<svg xmlns="http://www.w3.org/2000/svg" xmlns:xlink="http://www.w3.org/1999/xlink" version="1.1" x="0px" y="0px" viewBox="0 0 50 62.5" enable-background="new 0 0 50 50" xml:space="preserve"><g><path fill="blue" fill-rule="evenodd" clip-rule="evenodd" d="M23.984,6.988c-0.619-0.202-0.955-0.868-0.751-1.486   c0.202-0.617,0.869-0.955,1.487-0.751c0.617,0.205,0.953,0.87,0.751,1.487C25.267,6.857,24.601,7.192,23.984,6.988 M16.706,8.893   c-0.189,2.046-0.401,4.364-1.556,7.269c-2.486,6.258-1.119,11.631,0.332,17.317c0.652,2.554,1.321,5.193,1.624,7.945l1.377-2.532   c2.435-5.232,4.578-12.366,3.408-18.023c-0.347-1.677-0.677-3.01-1.226-4.276c-0.088-0.205-0.021-0.383,0.062-0.444   c0.093-0.07,0.286-0.013,0.495,0.167c1.083,0.93,2.062,2.71,2.387,4.207c1.285,5.918-0.955,13.18-2.919,17.668l-1.153,2.392   c0.84,3.323,1.355,6.131,1.783,8.697c0.126,0.73,1.048,0.973,1.517,0.41c2.881-3.463,3.763-8.636,2.184-12.674   c0.459-2.433,1.402-4.45,2.398-6.583c0.536-1.15,1.08-2.318,1.55-3.566c0.54-0.258,0.829-0.414,1.339-0.721l1.158-0.701   l-0.256,1.052c-0.112,0.461,0.171,0.929,0.635,1.04c0.457,0.118,0.93-0.173,1.043-0.632l0.701-2.91l1.263-2.897   c0.19-0.436-0.009-0.943-0.446-1.135c-0.44-0.189-0.947,0.01-1.135,0.448l-1.152,2.669l-2.383,1.372   c0.235-0.932,0.414-1.919,0.508-2.981c0.432-4.859-0.718-9.074-3.066-11.266c-0.163-0.157-0.208-0.281-0.247-0.26   c0.293-0.369,0.695-0.63,1.128-0.807c2.292-0.941,5.517,0.38,7.549,1.184c0.589,0.231,0.876-0.338,0.316-0.67   c-1.862-1.103-5.595-3.928-7.878-5.921c-0.451-0.393-0.758-0.815-1.2-1.186c-2.415-4.266-8.168-1.764-10.885-2.252   c-0.099-0.017-0.163,0.104-0.089,0.176c1.14,1.08,1.575,2.173,2.828,2.334l0.063,0.01c-0.588,0.606-1.089,1.402-1.443,2.423   C16.942,6.33,16.832,7.519,16.706,8.893z"/></g></svg>